<mxfile host="app.diagrams.net" modified="2024-03-06T08:38:29.072Z" agent="Mozilla/5.0 (X11; Linux x86_64) AppleWebKit/537.36 (KHTML, like Gecko) Chrome/122.0.0.0 Safari/537.36" version="24.0.0" etag="XcMS06GU3OSeDne2n_AE" type="github">
  <diagram name="Page-1" id="FBtMGMUnysoZTFoQg5hw">
    <mxGraphModel>
      <root>
        <mxCell id="0" />
        <mxCell id="1" parent="0" />
      </root>
    </mxGraphModel>
  </diagram>
</mxfile>
